<?xml version="1.0" encoding="iso-8859-1"?>
<!-- Generator: Adobe Illustrator 18.0.0, SVG Export Plug-In . SVG Version: 6.00 Build 0)  -->
<!DOCTYPE svg PUBLIC "-//W3C//DTD SVG 1.1//EN" "http://www.w3.org/Graphics/SVG/1.1/DTD/svg11.dtd">
<svg xmlns="http://www.w3.org/2000/svg" xmlns:xlink="http://www.w3.org/1999/xlink" version="1.1" id="Capa_1" x="0px" y="0px" viewBox="0 0 478.388 478.388" style="enable-background:new 0 0 478.388 478.388;" xml:space="preserve" width="512px" height="512px">
<g>
	<path d="M239.194,13.955C107.302,13.955,0,121.257,0,253.149v201.284c0,5.523,4.477,10,10,10h458.388c5.523,0,10-4.477,10-10   V253.149C478.388,121.257,371.086,13.955,239.194,13.955z M354.284,353.212h-13.966c-13.736,0-24.912,11.175-24.912,24.912v1.215   H162.982v-1.215c0-13.736-11.175-24.912-24.912-24.912h-13.966c-5.523,0-10,4.477-10,10s4.477,10,10,10h13.966   c2.708,0,4.912,2.203,4.912,4.912v34.641H103.13V253.149c0-75.026,61.038-136.064,136.064-136.064   c75.026,0,136.064,61.038,136.064,136.064v159.615h-39.852v-34.641c0-2.708,2.203-4.912,4.912-4.912h13.966c5.523,0,10-4.477,10-10   S359.807,353.212,354.284,353.212z M356.479,150.312l44.686-44.695c14.786,16.218,27.163,34.663,36.59,54.757l-58.4,24.191   C373.245,172.129,365.53,160.622,356.479,150.312z M342.355,136.151c-10.298-9.091-21.8-16.845-34.234-22.993l24.198-58.407   c20.087,9.466,38.515,21.887,54.715,36.712L342.355,136.151z M289.661,105.463c-12.822-4.394-26.393-7.154-40.463-8.048V34.193   c22.605,1.021,44.329,5.476,64.661,12.864L289.661,105.463z M229.197,97.414c-14.075,0.895-27.649,3.655-40.475,8.05   l-24.197-58.406c20.335-7.39,42.063-11.846,64.672-12.866V97.414z M170.262,113.161c-12.431,6.146-23.93,13.899-34.226,22.988   L91.353,91.466c16.198-14.824,34.626-27.245,54.712-36.711L170.262,113.161z M121.911,150.309   c-9.052,10.311-16.769,21.821-22.879,34.257l-58.4-24.191c9.426-20.094,21.803-38.538,36.588-54.757L121.911,150.309z    M91.38,203.045c-4.352,12.804-7.073,26.353-7.939,40.396H20.227c0.989-22.576,5.405-44.275,12.746-64.59L91.38,203.045z    M83.13,263.441v48.345H20v-48.345H83.13z M83.13,331.786v48.345H20v-48.345H83.13z M103.13,432.764h39.853v11.668H103.13V432.764z    M162.982,432.764h3.274c5.523,0,10-4.477,10-10s-4.477-10-10-10h-3.274v-13.426h36.698v13.426h-3.276c-5.523,0-10,4.477-10,10   s4.477,10,10,10h3.276v11.668h-36.698V432.764z M219.681,432.764h3.275c5.523,0,10-4.477,10-10s-4.477-10-10-10h-3.275v-13.426   h39.027v13.426h-3.275c-5.523,0-10,4.477-10,10s4.477,10,10,10h3.275v11.668h-39.027V432.764z M278.708,432.764h3.276   c5.523,0,10-4.477,10-10s-4.477-10-10-10h-3.276v-13.426h36.699v13.426h-3.274c-5.523,0-10,4.477-10,10s4.477,10,10,10h3.274   v11.668h-36.699V432.764z M335.406,432.764h39.852v11.668h-39.852V432.764z M395.258,331.786h63.13v48.345h-63.13V331.786z    M395.258,311.786v-48.345h63.13v48.345H395.258z M394.947,243.441c-0.866-14.043-3.588-27.593-7.94-40.398l58.407-24.194   c7.342,20.315,11.758,42.015,12.747,64.592H394.947z M20,400.131h63.13v44.302H20V400.131z M395.258,444.433v-44.302h63.13v44.302   H395.258z" fill="#045f73"/>
	<path d="M240.341,333.239c-13.02-10.937-4.878-27.781-3.935-29.612c0.243-0.457,0.45-0.932,0.619-1.42   c9.135-26.39-7.714-57.669-27.235-75.563c-3.157-2.894-7.806-3.457-11.561-1.399c-3.756,2.057-5.785,6.277-5.047,10.495   c1.835,10.487-3.623,16.114-17.471,27.372c-10.77,8.755-24.173,19.65-29.735,37.619c-2.964,9.576-2.874,19.694,0.267,30.072   c1.6,5.286,7.183,8.272,12.469,6.674c5.286-1.601,8.274-7.183,6.674-12.469c-1.992-6.581-2.092-12.587-0.304-18.363   c3.771-12.183,13.23-19.873,23.245-28.014c7.726-6.28,16.044-13.042,20.934-22.066c8.776,13.282,12.46,27.754,9.068,38.487   c-5.81,11.623-10.93,36.638,9.148,53.503c1.875,1.574,4.157,2.343,6.427,2.343c2.852,0,5.685-1.214,7.663-3.568   C245.118,343.099,244.569,336.791,240.341,333.239z" fill="#045f73"/>
	<path d="M323.182,228.752c0.318-0.546,0.638-1.095,0.956-1.652c2.244-3.926,1.573-8.87-1.636-12.057   c-3.209-3.186-8.155-3.823-12.068-1.552c-29.804,17.306-47.169,41.277-45.318,62.559c0.478,5.502,5.321,9.573,10.829,9.096   c5.502-0.479,9.575-5.327,9.096-10.829c-0.717-8.241,4.681-18.24,14.363-27.755c1.18,10.643,5.731,24.949,15.699,46.31   c8.11,17.378,4.134,34.796-11.818,51.77c-3.783,4.024-3.586,10.353,0.438,14.135c1.931,1.815,4.391,2.713,6.847,2.713   c2.663,0,5.321-1.058,7.289-3.151c21.487-22.863,26.945-49.117,15.369-73.925C314.334,243.932,318.434,236.898,323.182,228.752z" fill="#045f73"/>
	<path d="M281.911,226.221c0-16.711-13.922-37.186-27.72-50.063c-3.049-2.845-7.542-3.5-11.276-1.644   c-3.734,1.857-5.923,5.835-5.494,9.983c1.827,17.664-14.208,33.533-14.42,33.741c-3.96,3.827-4.081,10.14-0.264,14.116   c3.824,3.983,10.154,4.113,14.139,0.289c0.648-0.623,11.218-10.929,16.992-26.133c4.93,7.417,8.043,14.705,8.043,19.711   c0,5.523,4.477,10,10,10S281.911,231.744,281.911,226.221z" fill="#045f73"/>
</g>
<g>
</g>
<g>
</g>
<g>
</g>
<g>
</g>
<g>
</g>
<g>
</g>
<g>
</g>
<g>
</g>
<g>
</g>
<g>
</g>
<g>
</g>
<g>
</g>
<g>
</g>
<g>
</g>
<g>
</g>
</svg>
