<svg width="44" height="44" viewBox="0 0 44 44" fill="none" xmlns="http://www.w3.org/2000/svg">
<rect width="44" height="44" fill="#D6AD60"/>
<g clip-path="url(#clip0_614_15810)">
<path d="M13.5315 6.06251C12.194 6.26876 10.844 6.96251 9.86898 7.93126C9.02523 8.78126 8.43148 9.82501 8.11898 11.0375C7.91898 11.8 7.91273 13.3438 8.11273 14.0625C8.45648 15.3313 9.02523 16.35 9.86898 17.1938C10.7127 18.0375 11.7315 18.6063 13.0002 18.95C13.719 19.15 15.2627 19.1438 16.0252 18.9438C18.4815 18.3063 20.2065 16.575 20.894 14.0625C21.0752 13.3813 21.0752 11.7438 20.894 11.0625C20.5377 9.77501 19.969 8.76876 19.1065 7.91251C18.2565 7.06251 17.2502 6.49376 16.0627 6.19376C15.4565 6.03751 14.144 5.96876 13.5315 6.06251ZM15.4377 10.6875V11.625H16.3752H17.3127V12.5625V13.5H15.4377H13.5627V11.625V9.75001H14.5002H15.4377V10.6875Z" fill="white"/>
<path d="M30.4375 12.5625V13.4937L31.4125 13.5125L32.3875 13.5312L31.3062 14.3187C24.725 19.1062 17.1562 22.6562 9.4875 24.5687C9.04375 24.675 8.6875 24.8 8.6875 24.8375C8.6875 24.875 8.775 25.2812 8.8875 25.7312C9.03125 26.3312 9.1125 26.5625 9.18125 26.5625C9.48125 26.5625 12.55 25.6937 14.4062 25.0812C20.7625 22.9875 26.9875 19.8 32.3625 15.8812C32.8813 15.5 33.325 15.1875 33.3375 15.1875C33.35 15.1875 33.2375 15.5875 33.0875 16.075C32.9438 16.5625 32.825 16.9687 32.8313 16.975C32.8813 17.025 34.5813 17.5 34.6063 17.475C34.6375 17.4437 36.375 11.7125 36.375 11.6437C36.375 11.6375 35.0375 11.625 33.4062 11.625H30.4375V12.5625Z" fill="white"/>
<path d="M30.4375 27.625V36.125H29.5H28.5625V29.5V22.875H25.75H22.9375V29.5V36.125H22H21.0625V31.375V26.625H18.25H15.4375V31.375V36.125H14.5H13.5625V33.25V30.375H10.75H7.9375V33.25V36.125H6.96875H6V37.0625V38H22H38V37.0625V36.125H37.0312H36.0625V27.625V19.125H33.25H30.4375V27.625Z" fill="white"/>
</g>
<defs>
<clipPath id="clip0_614_15810">
<rect width="32" height="32" fill="white" transform="translate(6 6)"/>
</clipPath>
</defs>
</svg>
