<svg width="44" height="44" viewBox="0 0 44 44" fill="none" xmlns="http://www.w3.org/2000/svg">
<rect width="44" height="44" fill="#D6AD60"/>
<g clip-path="url(#clip0_614_15811)">
<path d="M22 14.4688V22.9375H24.3438H26.6875V22V21.0625H25.75H24.8125V13.5312V6H23.4062H22V14.4688Z" fill="white"/>
<path d="M17.3125 16.375V22.9375H18.7188H20.125V16.375V9.8125H18.7188H17.3125V16.375Z" fill="white"/>
<path d="M12.625 18.25V22.9375H14.0312H15.4375V18.25V13.5625H14.0312H12.625V18.25Z" fill="white"/>
<path d="M26.6875 16.4062V19.1875H27.625H28.5625V22V24.8125H33.2875H38.0063L37.9688 24.45C37.45 19.95 34.475 16.1 30.2062 14.4125C29.2938 14.05 27.4875 13.625 26.8625 13.625H26.6875V16.4062Z" fill="white"/>
<path d="M7.875 19.1875V21.0625H6.9375H6V22V22.9375H8.375H10.75V20.125V17.3125H9.3125H7.875V19.1875Z" fill="white"/>
<path d="M13.5999 25.0062C13.5436 25.3062 13.5561 26.225 13.6249 26.9437C13.8061 28.725 14.3874 30.4937 15.2811 31.9688C15.6124 32.5125 16.4186 33.625 16.4874 33.625C16.5124 33.625 18.5124 31.6437 20.9374 29.2188L25.3436 24.8125H19.4936H13.6436L13.5999 25.0062Z" fill="white"/>
<path d="M26.6875 32.3438C26.6875 36.4812 26.7063 38 26.7563 38C26.7938 38 27.125 37.9563 27.4875 37.9C33.0125 37.0813 37.3313 32.6125 37.9688 27.0437L38.0063 26.6875H32.35H26.6875V32.3438Z" fill="white"/>
<path d="M21.325 31.5188C19.4312 33.4125 17.875 34.9875 17.875 35.0188C17.875 35.0875 19.0562 35.95 19.65 36.3063C21.075 37.1688 22.85 37.7813 24.4563 37.9688L24.8125 38.0063V33.0375C24.8125 30.3 24.8063 28.0625 24.7938 28.0625C24.7875 28.0625 23.225 29.6188 21.325 31.5188Z" fill="white"/>
</g>
<defs>
<clipPath id="clip0_614_15811">
<rect width="32" height="32" fill="white" transform="translate(6 6)"/>
</clipPath>
</defs>
</svg>
