<svg width="44" height="44" viewBox="0 0 44 44" fill="none" xmlns="http://www.w3.org/2000/svg">
<rect width="44" height="44" fill="#D6AD60"/>
<g clip-path="url(#clip0_614_15812)">
<path d="M6 19.8438V33.6875H15.9062H25.8125V32.3438V31H22.3438C20.075 31 18.7688 30.975 18.55 30.9312C17.3125 30.675 16.2312 29.625 15.9313 28.375C15.875 28.1375 15.85 27.5437 15.8438 26.4688V24.9062L21.825 24.8875L27.8 24.875L27.6688 24.5437C27.5562 24.2625 27.5312 24.0562 27.5125 23.0188C27.5 22.2625 27.5125 21.7 27.5625 21.475C27.7875 20.375 28.75 19.3938 29.8813 19.0938C30.3125 18.975 31.0625 18.975 31.4937 19.0938C32.6125 19.3875 33.4875 20.275 33.7812 21.4187C33.85 21.6687 33.875 22.1 33.875 22.85C33.875 23.9 33.8313 24.2063 33.6 24.7562C33.5625 24.8438 33.6938 24.8625 34.8875 24.8938C36.5375 24.9375 36.6625 24.9625 37.9563 25.6125C37.9813 25.625 38 21.2188 38 15.8188V6H22H6V19.8438ZM31.8125 12.9062V15.75H30.875H29.9375V14.4875V13.2188L25.9688 17.1875L22 21.1562L18.5625 17.7188L15.125 14.2812L13.325 16.0812L11.5312 17.875L10.8563 17.2062L10.1875 16.5312L12.6375 14.0812L15.0938 11.625L18.5437 15.075L22 18.5312L25.2938 15.2312L28.5938 11.9375H27.3563H26.125V11V10.0625H28.9688H31.8125V12.9062ZM13.375 21.5625V22.5H10.9062H8.4375V21.5625V20.625H10.9062H13.375V21.5625ZM13.3625 25.7937L13.3438 26.7188L10.8938 26.7375L8.4375 26.75V25.8125V24.875H10.9062H13.3812L13.3625 25.7937ZM13.375 30V30.9375H10.9062H8.4375V30V29.0625H10.9062H13.375V30Z" fill="white"/>
<path d="M30.0625 21.0125C29.9063 21.1 29.7 21.2875 29.5938 21.4312L29.4063 21.7L29.3875 22.7375C29.3688 23.7375 29.375 23.7937 29.5188 24.0625C29.7438 24.4937 30.1 24.7125 30.6125 24.7375C30.9875 24.7562 31.0688 24.7375 31.35 24.5687C31.6 24.425 31.7125 24.3062 31.8375 24.05C31.9875 23.7437 32 23.6687 32 22.8125C32 21.9625 31.9875 21.8812 31.8438 21.5812C31.6125 21.125 31.2875 20.9187 30.7563 20.8875C30.4125 20.8687 30.2938 20.8937 30.0625 21.0125Z" fill="white"/>
<path d="M17.7062 26.85C17.6875 26.9062 17.6875 27.1938 17.7125 27.4875C17.7562 28.1062 17.9062 28.4688 18.2062 28.725C18.575 29.0375 18.85 29.125 19.5187 29.125H20.125V27.9375V26.75H18.9375C17.9062 26.75 17.7437 26.7625 17.7062 26.85Z" fill="white"/>
<path d="M22.0437 26.7937C22.0188 26.8125 22 27.35 22 27.9812V29.125H24.8438H27.6875V33.5625V38H30.75H33.8125V34.0938V30.1813L34.7375 30.2L35.6562 30.2188L35.675 32.1062L35.6875 34H36.8438H38V31.45C38 28.6438 37.9875 28.5062 37.6125 27.925C37.225 27.3125 36.6125 26.9187 35.8938 26.8125C35.4187 26.7437 22.1125 26.725 22.0437 26.7937Z" fill="white"/>
<path d="M35.6875 36.9375V38H36.8438H38L37.9875 36.95L37.9688 35.9062L36.8313 35.8875L35.6875 35.875V36.9375Z" fill="white"/>
</g>
<defs>
<clipPath id="clip0_614_15812">
<rect width="32" height="32" fill="white" transform="translate(6 6)"/>
</clipPath>
</defs>
</svg>
