<svg width="44" height="44" viewBox="0 0 44 44" fill="none" xmlns="http://www.w3.org/2000/svg">
<rect width="44" height="44" fill="#D6AD60"/>
<g clip-path="url(#clip0_614_15813)">
<path d="M13.5625 7.90625V9.8125H18.25H22.9375V7.90625V6H18.25H13.5625V7.90625Z" fill="white"/>
<path d="M6 22.9687V38H18.25H30.5V22.9687V7.9375H27.6562H24.8125V9.8125V11.6875H18.25H11.6875V9.8125V7.9375H8.84375H6V22.9687ZM19.1438 13.6312C21.7375 14.0187 23.8313 15.8437 24.55 18.3437C25.55 21.7937 23.5188 25.4187 20.0312 26.425C16.5813 27.425 12.9563 25.3937 11.95 21.9062C10.7625 17.8 13.8812 13.625 18.175 13.5687C18.4625 13.5625 18.9 13.5937 19.1438 13.6312ZM26.6875 29.5V30.4375H18.25H9.8125V29.5V28.5625H18.25H26.6875V29.5ZM26.6875 33.25V34.1875H18.25H9.8125V33.25V32.3125H18.25H26.6875V33.25Z" fill="white"/>
<path d="M16.6188 15.7437C15.5001 16.1625 14.5876 16.9937 14.0438 18.0937C13.6938 18.8125 13.6001 19.2375 13.6001 20.125C13.6001 20.9437 13.6501 21.2062 13.9188 21.875C14.4751 23.25 15.6751 24.2812 17.1876 24.7C17.6251 24.8187 18.9563 24.8 19.4063 24.6687C20.9626 24.2062 22.1438 23.1312 22.6501 21.7C22.7376 21.45 22.8126 21.2 22.8126 21.15C22.8126 21.075 22.4126 21.0625 20.0626 21.0625H17.3126V18.3125C17.3126 15.1562 17.3938 15.4562 16.6188 15.7437Z" fill="white"/>
<path d="M19.1875 17.375V19.1875H21C22 19.1875 22.8125 19.1687 22.8125 19.1375C22.8063 18.9437 22.5938 18.3625 22.3688 17.925C21.9875 17.2 21.175 16.3875 20.45 16.0062C20.0125 15.7812 19.4313 15.5687 19.2375 15.5625C19.2063 15.5625 19.1875 16.375 19.1875 17.375Z" fill="white"/>
<path d="M34.25 8.875V9.8125H33.3125H32.375V12.625V15.4375H35.1875H38V12.625V9.8125H37.0625H36.125V8.875V7.9375H35.1875H34.25V8.875Z" fill="white"/>
<path d="M32.375 24.55V31.7812L33.3125 32.7188L34.25 33.6562V34.8562V36.0625H35.1875H36.125V34.8562V33.6562L37.0625 32.7188L38 31.7812V24.55V17.3125H35.1875H32.375V24.55Z" fill="white"/>
</g>
<defs>
<clipPath id="clip0_614_15813">
<rect width="32" height="32" fill="white" transform="translate(6 6)"/>
</clipPath>
</defs>
</svg>
