<svg width="44" height="44" viewBox="0 0 44 44" fill="none" xmlns="http://www.w3.org/2000/svg">
<rect width="44" height="44" fill="#D6AD60"/>
<path d="M7 22V38H12.625H18.25V24.875V11.75H22.9375H27.625V8.875V6H17.3125H7V22ZM16.375 14.5625V15.5H12.625H8.875V14.5625V13.625H12.625H16.375V14.5625ZM16.375 18.3125V19.25H12.625H8.875V18.3125V17.375H12.625H16.375V18.3125ZM16.375 22.0625V23H12.625H8.875V22.0625V21.125H12.625H16.375V22.0625ZM16.375 25.8125V26.75H12.625H8.875V25.8125V24.875H12.625H16.375V25.8125ZM16.375 29.5625V30.5H12.625H8.875V29.5625V28.625H12.625H16.375V29.5625Z" fill="white"/>
<path d="M20.125 17.375V21.125H28.5625H37V17.375V13.625H28.5625H20.125V17.375Z" fill="white"/>
<path d="M20.125 30.5V38H28.5625H37V30.5V23H28.5625H20.125V30.5ZM25.75 26.75V27.6875H24.8125H23.875V26.75V25.8125H24.8125H25.75V26.75ZM29.5 26.75V27.6875H28.5625H27.625V26.75V25.8125H28.5625H29.5V26.75ZM33.25 26.75V27.6875H32.3125H31.375V26.75V25.8125H32.3125H33.25V26.75ZM25.75 30.5V31.4375H24.8125H23.875V30.5V29.5625H24.8125H25.75V30.5ZM29.5 30.5V31.4375H28.5625H27.625V30.5V29.5625H28.5625H29.5V30.5ZM33.25 30.5V31.4375H32.3125H31.375V30.5V29.5625H32.3125H33.25V30.5ZM25.75 34.25V35.1875H24.8125H23.875V34.25V33.3125H24.8125H25.75V34.25ZM33.25 34.25V35.1875H30.4375H27.625V34.25V33.3125H30.4375H33.25V34.25Z" fill="white"/>
</svg>
